PathFileType	4	(X/Y/Z)	Patient4_TMGait_0pt3_01_right_08.trc.trc
DataRate	CameraRate	NumFrames	NumMarkers	Units	OrigDataRate	OrigDataStartFrame	OrigNumFrames
51.282051282051	51.282051282051	4	33	mm	51.282051282051	89	       141
Frame#	Time	Sacral			L.Shoulder			Chest			R.Shoulder			Neck			R.ASIS			L.ASIS			R.Thigh.Superior			R.Thigh.Lateral			R.Thigh.Inferior			R.Patella			L.Thigh.Superior			L.Thigh.Lateral			L.Thigh.Inferior			L.Patella			L.Shank.Superior			L.Shank.Lateral			L.Shank.Inferior			R.Shank.Superior			R.Shank.Lateral			R.Shank.Inferior			R.Heel			R.Midfoot.Superior			R.Midfoot.Lateral			R.Toe			L.Heel			L.Midfoot.Lateral			L.Midfoot.Superior			L.Toe			L.Elbow			L.Wrist			R.Elbow			R.Wrist			
		X1	Y1	Z1	X2	Y2	Z2	X3	Y3	Z3	X4	Y4	Z4	X5	Y5	Z5	X6	Y6	Z6	X7	Y7	Z7	X8	Y8	Z8	X9	Y9	Z9	X10	Y10	Z10	X11	Y11	Z11	X12	Y12	Z12	X13	Y13	Z13	X14	Y14	Z14	X15	Y15	Z15	X16	Y16	Z16	X17	Y17	Z17	X18	Y18	Z18	X19	Y19	Z19	X20	Y20	Z20	X21	Y21	Z21	X22	Y22	Z22	X23	Y23	Z23	X24	Y24	Z24	X25	Y25	Z25	X26	Y26	Z26	X27	Y27	Z27	X28	Y28	Z28	X29	Y29	Z29	X30	Y30	Z30	X31	Y31	Z31	X32	Y32	Z32	X33	Y33	Z33	

89	15.286000000000	744.301794265264	1008.781047399933	523.908467406895	898.461736274506	1425.245075460575	303.501186108357	1027.794502415407	1361.148220072739	446.031414532003	978.534730221659	1444.765879283950	627.983586854408	907.363383252368	1491.776517610243	462.962429877382	985.146155404747	938.701850137979	609.945767887597	936.190395544366	956.519003908781	340.209989221133	983.531318769129	726.660786142264	592.456902175319	887.804329487562	631.798181741408	665.499180821089	947.111296968634	563.522297395486	586.190944821161	929.943406842063	470.852471509929	601.599662608551	1006.352311345575	758.766293653572	374.184701612350	931.621971429190	632.711187372978	316.015162344294	1029.455649188106	565.446163798266	373.558427811165	1038.923647136908	492.431800900387	378.793874346793	1008.113332047367	418.790318047530	372.612877835713	914.531820424035	306.851699800619	325.434734682064	966.063486377194	192.767554771624	389.066915475091	875.258911127078	394.358328603337	613.214060033348	777.957294468055	317.790098194493	680.176042367017	793.217081797966	211.046162351887	624.858510283241	622.950292272706	73.242243075437	600.626445071983	799.109830025361	102.080978973165	641.424127565384	702.596244965439	52.724876995207	676.773872012767	908.896517111524	37.111857888727	672.636239462266	837.616358843219	38.863337688639	434.044538632743	906.041362410528	36.536884447021	348.906027115749	991.788864387504	96.374087148915	371.061975356047	1117.053304649843	42.855386270631	332.173032603865	829.832901633920	1076.268468845613	197.422801422734	966.618174210057	854.726377999525	167.437403306710	1115.519131345774	1130.857268912245	750.366798629741	1360.599459822778	1057.935197207208	709.321089284127	
90	15.305500000000	743.718061505565	1009.216411529284	518.063831459405	900.300513032771	1426.244878308278	299.228528241912	1028.053664160174	1361.962119661313	443.064842217378	976.835815111153	1445.374773990114	624.600670517481	907.441809028109	1492.470617201076	459.018539786610	983.729976786012	939.473960087913	605.866013132587	936.999095010064	957.146169099109	335.949040526901	984.452103938216	727.666277749641	589.220125923981	889.786626553177	632.254776165575	662.475365146519	950.743295851021	563.942705980069	584.058782642105	934.327607978580	469.981718897795	600.890484348040	1005.591117408511	758.018685039995	370.110410997261	929.697163217885	632.365086909190	312.942149295203	1026.829881515114	564.533237049119	370.994334616707	1035.731944941801	491.602264611351	376.707762642161	1004.430552808933	418.106393200344	370.862746549189	910.283247518304	306.460647570006	324.201765455301	961.071809044545	192.471151100273	388.493593838701	877.665118914141	394.436087023478	612.349956352185	778.206524532773	320.272724558196	678.910477501745	791.908022647694	212.761772295439	624.765781316051	618.803918567293	78.506578026105	600.997194948364	795.640018912683	102.860332029935	641.842732580443	697.925615836871	55.693978044719	676.981998569386	903.420056398274	36.880903103684	672.638698616321	831.766896718987	38.936292534282	434.033540342672	900.186583376628	36.537703795739	348.914028017519	986.029884589910	96.265100125450	371.022304013048	1111.260940300572	42.424263142918	332.135808374479	837.348072696076	1078.015798715465	187.462224935835	979.618257575309	860.382526181389	155.762775084241	1105.926620489738	1127.709123983466	748.474479508847	1346.605351998124	1038.609551268295	711.407866975109	
91	15.325000000000	743.078194024846	1009.500908408262	512.254424026875	902.054499655521	1427.149095502997	295.058818797273	1028.182204328634	1362.681555093649	440.197349308133	974.960271033321	1445.821162524656	621.319207528356	907.460923812122	1493.061978912110	455.163667291765	982.233906922466	940.168055986393	601.836927347307	937.770473367146	957.669103799897	331.752533384553	985.738545533563	728.696630368475	586.054022241422	892.361816471905	632.590210669262	659.512265970697	955.130980161480	564.370635715075	582.001059998667	939.582023955668	469.087350102478	600.297657608450	1004.872344692515	757.231067644824	366.138808842095	927.874451495451	631.985257262827	309.900235088576	1024.308604771474	563.596436287439	368.476270902695	1032.619821876549	490.736858767689	374.662165612896	1000.824620992970	417.377104301664	369.133654354992	906.087402227747	306.057826941127	322.953639968597	956.102353814302	192.148760568211	387.908565264877	880.893074577545	394.470625312323	611.572230345323	779.226391680554	322.916766287883	677.683948804196	791.187855922044	214.669109739529	624.711364443924	615.107019407182	84.494141042767	601.346869499187	792.504411554938	103.717086732600	642.277274979153	693.507203592941	59.173073458139	677.189074256717	897.903327149691	36.671119761742	672.660229515859	825.912582184648	39.003908565743	434.013374108804	894.330365131267	36.537992270451	348.910093614575	980.258288148953	96.166896307284	370.973871839649	1105.463631633496	42.041406324867	332.097500629865	844.954090229077	1079.786328596265	177.741116430683	992.495340732153	866.128948966710	144.424721804860	1094.882916292638	1124.227687475024	746.829697759345	1329.787399072088	1018.756517708041	714.026490866329	
92	15.344500000000	742.350095954241	1009.595544185763	506.490143787859	903.733285085589	1427.907691671220	291.008044504640	1028.175566108286	1363.241967080808	437.448985649477	972.898196009952	1446.039175702429	618.153565511087	907.429520503698	1493.501415446812	451.412891369842	980.633886412366	940.739423696044	597.895443545488	938.489154610319	958.028009565928	327.650017444580	987.398480700562	729.753181981823	582.965020067507	895.567455507707	632.801498421347	656.613425454576	960.299352603424	564.826131614149	579.997225005380	945.735191164625	468.207818055246	599.768840637207	1004.231353299928	756.399488669718	362.334174219234	926.245345913161	631.537967345050	306.923552920107	1021.994610211993	562.627923618062	366.054015229635	1029.711322465623	489.810395491776	372.697983999839	997.396479528386	416.572548049050	367.462869890255	902.026639383330	305.639059065485	321.710756004239	951.187225037101	191.782973871660	387.332917765897	884.995516591571	394.484460462588	610.843454064416	781.090270575873	325.760889262020	676.471800017413	791.118111721421	216.822560419798	624.659221426479	611.967263264580	91.346628989773	601.611469003775	789.732952261828	104.720165636898	642.693932312862	689.393671935207	63.306179159956	677.353644083351	892.325618448860	36.446892457980	672.714142468749	820.057155070874	39.065767898606	433.982588289946	888.476056314623	36.537956679442	348.893503552675	974.476283351092	96.079446890323	370.922182503846	1099.664150870794	41.709727600763	332.057627857661	852.586062706786	1081.512231238136	168.370473941079	1005.244238235946	871.906771263320	133.534443697444	1082.415977172321	1120.436284922138	745.298722367622	1310.118805105700	998.604553157751	717.068501189738	
